<svg version="1.1" baseProfile="tiny" id="chart" xmlns="http://www.w3.org/2000/svg" xmlns:xlink="http://www.w3.org/1999/xlink"
   x="0px" y="0px" width="366.037px" height="261.026px" viewBox="0 0 366.037 261.026" xml:space="preserve">
  
  <defs>
    <style type="text/css">
      
      .zigzag {
        stroke-dasharray: 480;
        stroke-dashoffset: 480;
        animation: zigzag 4s linear forwards infinite;
      }
      @keyframes zigzag {
        from {
          stroke-dashoffset: 980;
        }
        to {
          stroke-dashoffset: 0;
        }
      }

      @keyframes month {
        from {
          stroke-dashoffset: 380;
        }
        to {
          stroke-dashoffset: 0;
        }
      }

      .dash {
        stroke-dasharray: 280;
        stroke-dashoffset: 280;
        animation: month 4s linear backwards infinite;
      }


      .dash:nth-child(1) {
        animation-delay: 0s;
      }
      .dash:nth-child(2) {
        animation-delay: 0.05s;
      }
      .dash:nth-child(3) {
        animation-delay: 0.10s;
      }
      .dash:nth-child(4) {
        animation-delay: 0.15s;
      }
      .dash:nth-child(5) {
        animation-delay: 0.20s;
      }
      .dash:nth-child(6) {
        animation-delay: 0.25s;
      }
      .dash:nth-child(7) {
        animation-delay: 0.30s;
      }
      .dash:nth-child(8) {
        animation-delay: 0.35s;
      }
      .dash:nth-child(9) {
        animation-delay: 0.40s;
      }
      .dash:nth-child(10) {
        animation-delay: 0.45s;
      }
    </style>
   </defs>
  
<path fill="#FFFFFF" d="M297.813,187.789c-0.414,0-0.75-0.336-0.75-0.75V41.398c0-0.689-0.561-1.25-1.25-1.25H61.049
  c-0.689,0-1.25,0.561-1.25,1.25v145.641c0,0.414-0.336,0.75-0.75,0.75s-0.75-0.336-0.75-0.75V41.398c0-1.517,1.234-2.75,2.75-2.75
  h234.764c1.516,0,2.75,1.233,2.75,2.75v145.641C298.563,187.453,298.227,187.789,297.813,187.789z M327.25,187.977
  c0-0.414-0.336-0.75-0.75-0.75H30.363c-0.414,0-0.75,0.336-0.75,0.75c0,10.002,8.137,18.139,18.138,18.139h261.367
  C319.116,206.115,327.25,197.979,327.25,187.977z M325.733,188.727c-0.394,8.828-7.696,15.889-16.615,15.889H47.75
  c-8.923,0-16.228-7.061-16.621-15.889H325.733z"/>
<g>
  
    <line class="dash" fill="none" stroke="#FFFFFF" stroke-width="7" stroke-linecap="round" stroke-linejoin="round" stroke-miterlimit="10" x1="84.662" y1="168.215" x2="84.662" y2="140.473"/>
  
      <line class="dash" fill="none" stroke="#FFFFFF" stroke-width="7" stroke-linecap="round" stroke-linejoin="round" stroke-miterlimit="10" x1="105.592" y1="168.215" x2="105.592" y2="149.795"/>
  
   <line class="dash three" fill="none" stroke="#FFFFFF" stroke-width="7" stroke-linecap="round" stroke-linejoin="round" stroke-miterlimit="10" x1="126.523" y1="168.215" x2="126.523" y2="159.118"/>
  
  <line class="dash four" fill="none" stroke="#FFFFFF" stroke-width="7" stroke-linecap="round" stroke-linejoin="round" stroke-miterlimit="10" x1="147.453" y1="168.215" x2="147.453" y2="140.473"/>
  
  <line class="dash five" fill="none" stroke="#FFFFFF" stroke-width="7" stroke-linecap="round" stroke-linejoin="round" stroke-miterlimit="10" x1="168.382" y1="168.215" x2="168.382" y2="149.795"/>
  
  
    <line class="dash six" fill="none" stroke="#FFFFFF" stroke-width="7" stroke-linecap="round" stroke-linejoin="round" stroke-miterlimit="10" x1="189.313" y1="168.215" x2="189.313" y2="140.473"/>
  
  <line class="dash seven" fill="none" stroke="#FFFFFF" stroke-width="7" stroke-linecap="round" stroke-linejoin="round" stroke-miterlimit="10" x1="210.244" y1="168.215" x2="210.244" y2="135.812"/>
  
    <line class="dash eight" fill="none" stroke="#FFFFFF" stroke-width="7" stroke-linecap="round" stroke-linejoin="round" stroke-miterlimit="10" x1="231.173" y1="168.215" x2="231.173" y2="163.779"/>
  
      <line class="dash nine" fill="none" stroke="#FFFFFF" stroke-width="7" stroke-linecap="round" stroke-linejoin="round" stroke-miterlimit="10" x1="252.104" y1="168.215" x2="252.104" y2="154.457"/>
  
    <line class="dash ten" fill="none" stroke="#FFFFFF" stroke-width="7" stroke-linecap="round" stroke-linejoin="round" stroke-miterlimit="10" x1="272.201" y1="168.215" x2="272.201" y2="163.779"/>

  
  
</g>
<polyline fill="none" points="84.295,72.647 104.795,97.147 147.795,75.147 189.295,110.647 231.795,102.147 270.795,122.147 "/>
<polyline class="zigzag" fill="none" stroke="#c04848" stroke-width="5" stroke-miterlimit="10" points="84.295,72.647 104.795,97.147 
  147.795,75.147 189.295,110.647 231.795,102.147 270.795,122.147 "/>
</svg>